<?xml version="1.0" encoding="iso-8859-1"?>
<!-- Generator: Adobe Illustrator 19.0.0, SVG Export Plug-In . SVG Version: 6.00 Build 0)  -->
<svg version="1.1" id="Capa_1" xmlns="http://www.w3.org/2000/svg" xmlns:xlink="http://www.w3.org/1999/xlink" x="0px" y="0px"
	 viewBox="0 0 403.891 403.891" style="enable-background:new 0 0 403.891 403.891;" xml:space="preserve">
<path style="fill:#FFFFFF;" d="M152.267,150.844c-29.082,0-48.271,33.403-48.271,74.605s19.19,171.155,48.271,171.155
	c16.971,0,18.896-107.916,41.697-108.015c27.184,0.099,24.719,108.015,41.69,108.015c29.082,0,48.271-129.949,48.271-171.155
	s-19.19-74.605-48.271-74.605c-13.899,0-27.798,13.165-41.69,13.165C180.065,164.009,166.166,150.844,152.267,150.844z"/>
<path style="fill:#602F75;" d="M235.654,403.43c-13.22,0-16.739-19.961-22.06-50.176c-3.56-20.2-10.179-57.805-19.661-57.836
	c-6.615,0.027-14.527,39.602-17.507,54.501c-6.448,32.222-10.708,53.514-24.16,53.514c-39.905,0-55.101-151.576-55.101-177.981
	c0-47.186,23.173-81.432,55.101-81.432c8.486,0,16.254,3.68,23.767,7.24c6.434,3.048,12.513,5.926,17.927,5.926
	s11.486-2.877,17.92-5.926c7.513-3.56,15.288-7.24,23.774-7.24c31.928,0,55.101,34.246,55.101,81.432
	C290.756,251.855,275.563,403.43,235.654,403.43z M152.27,157.67c-23.627,0-41.448,29.14-41.448,67.779
	c0,53.456,22.088,160.877,40.561,164.246c4.086-4.591,8.619-27.262,11.66-42.458c7.021-35.089,13.08-65.396,30.894-65.475
	c20.948,0.072,27.126,35.178,33.106,69.12c2.42,13.752,6.028,34.222,9.595,38.793c18.459-3.724,40.465-110.862,40.465-164.226
	c0-38.639-17.821-67.779-41.448-67.779c-5.414,0-11.493,2.881-17.927,5.926c-7.513,3.56-15.288,7.24-23.767,7.24
	c-8.486,0-16.254-3.68-23.767-7.24C163.763,160.551,157.684,157.67,152.27,157.67z"/>
<path style="fill:#00E7FF;" d="M125.697,212.284c-3.772,0-6.827-3.058-6.827-6.827c0-22.586,18.374-40.96,40.96-40.96
	c3.772,0,6.827,3.058,6.827,6.827c0,3.768-3.055,6.827-6.827,6.827c-15.06,0-27.307,12.25-27.307,27.307
	C132.524,209.229,129.469,212.284,125.697,212.284z"/>
<path style="fill:#602F75;" d="M42.842,175.563c-3.772,0-6.827-3.058-6.827-6.827V97.681c0-3.768,3.055-6.827,6.827-6.827
	c18.821,0,34.133-15.312,34.133-34.133S61.663,22.588,42.842,22.588c-9.114,0-17.688,3.55-24.132,9.998
	c-2.666,2.666-6.987,2.666-9.653,0s-2.666-6.991,0-9.653c9.028-9.028,21.026-13.998,33.785-13.998
	c26.348,0,47.787,21.436,47.787,47.787c0,24.033-17.835,43.977-40.96,47.299v64.713C49.669,172.505,46.617,175.563,42.842,175.563z"
	/>
<path style="fill:#FFE600;" d="M70.067,318.739v51.104c0,15.032-12.186,27.221-27.221,27.221l0,0
	c-15.032,0-27.221-12.186-27.221-27.221V151.305h54.443v137.492"/>
<path style="fill:#602F75;" d="M42.849,403.891c-18.773,0-34.048-15.275-34.048-34.048V151.305c0-3.768,3.055-6.827,6.827-6.827
	h54.439c3.772,0,6.827,3.058,6.827,6.827v137.492c0,3.768-3.055,6.827-6.827,6.827c-3.772,0-6.827-3.058-6.827-6.827V158.131H22.458
	v211.712c0,11.243,9.148,20.395,20.395,20.395s20.395-9.151,20.395-20.395v-51.104c0-3.768,3.055-6.827,6.827-6.827
	c3.772,0,6.827,3.058,6.827,6.827v51.104C76.897,388.617,61.622,403.891,42.849,403.891z"/>
<rect x="15.249" y="137.194" style="fill:#EA3457;" width="54.613" height="34.133"/>
<path style="fill:#602F75;" d="M69.862,178.15H15.249c-3.772,0-6.827-3.058-6.827-6.827V137.19c0-3.768,3.055-6.827,6.827-6.827
	h54.613c3.772,0,6.827,3.058,6.827,6.827v34.133C76.689,175.095,73.637,178.15,69.862,178.15z M22.075,164.497h40.96v-20.48h-40.96
	V164.497z"/>
<polyline style="fill:#FFFFFF;" points="342.929,89.404 342.929,125.332 342.929,160.456 "/>
<path style="fill:#602F75;" d="M342.929,167.282c-3.772,0-6.827-3.058-6.827-6.827V89.404c0-3.768,3.055-6.827,6.827-6.827
	c3.772,0,6.827,3.058,6.827,6.827v71.049C349.755,164.224,346.704,167.282,342.929,167.282z"/>
<ellipse style="fill:#00E7FF;" cx="342.232" cy="54.595" rx="47.786" ry="47.786"/>
<path style="fill:#602F75;" d="M342.243,109.198c-14.585,0-28.3-5.68-38.612-15.998c-10.319-10.312-16.002-24.026-16.002-38.615
	c0-14.585,5.68-28.303,16.002-38.615c21.292-21.292,55.941-21.292,77.234,0c21.292,21.296,21.292,55.945,0,77.233l0,0
	C370.543,103.518,356.828,109.198,342.243,109.198z M342.243,13.648c-10.486,0-20.975,3.99-28.959,11.974
	c-7.741,7.738-12.001,18.022-12.001,28.962s4.26,21.228,12.001,28.962c7.735,7.738,18.019,11.998,28.959,11.998
	c10.94,0,21.228-4.26,28.966-11.998c15.968-15.971,15.968-41.953,0-57.928C363.224,17.638,352.735,13.648,342.243,13.648z
	 M376.035,88.376h0.068H376.035z"/>
<rect x="315.608" y="137.194" style="fill:#FFE600;" width="54.613" height="34.133"/>
<path style="fill:#602F75;" d="M370.235,178.15h-54.613c-3.772,0-6.827-3.058-6.827-6.827V137.19c0-3.768,3.055-6.827,6.827-6.827
	h54.613c3.772,0,6.827,3.058,6.827,6.827v34.133C377.062,175.095,374.01,178.15,370.235,178.15z M322.449,164.497h40.96v-20.48
	h-40.96V164.497z"/>
<path style="fill:#EA3457;" d="M370.065,316.67v52.716c0,15.032-12.186,27.221-27.221,27.221l0,0
	c-15.032,0-27.221-12.186-27.221-27.221V171.324h54.443v112.64"/>
<path style="fill:#602F75;" d="M342.843,403.43c-18.773,0-34.048-15.275-34.048-34.048V171.324c0-3.768,3.055-6.827,6.827-6.827
	h54.439c3.772,0,6.827,3.058,6.827,6.827v112.64c0,3.768-3.055,6.827-6.827,6.827c-3.772,0-6.827-3.058-6.827-6.827V178.15h-40.786
	v191.232c0,11.243,9.148,20.395,20.395,20.395c11.247,0,20.395-9.151,20.395-20.395V316.67c0-3.768,3.055-6.827,6.827-6.827
	c3.772,0,6.827,3.058,6.827,6.827v52.712C376.888,388.159,361.617,403.43,342.843,403.43z"/>
<g>
</g>
<g>
</g>
<g>
</g>
<g>
</g>
<g>
</g>
<g>
</g>
<g>
</g>
<g>
</g>
<g>
</g>
<g>
</g>
<g>
</g>
<g>
</g>
<g>
</g>
<g>
</g>
<g>
</g>
</svg>
